<svg xmlns="http://www.w3.org/2000/svg" version="1.1" xmlns:xlink="http://www.w3.org/1999/xlink" xmlns:svgjs="http://svgjs.dev/svgjs" width="2000" height="782" viewBox="0 0 2000 782"><g transform="matrix(1,0,0,1,-1.2121212121212466,0.21108103385734012)"><svg viewBox="0 0 396 155" data-background-color="#0c0f2e" preserveAspectRatio="xMidYMid meet" height="782" width="2000" xmlns="http://www.w3.org/2000/svg" xmlns:xlink="http://www.w3.org/1999/xlink"><g id="tight-bounds" transform="matrix(1,0,0,1,0.2400000000000091,-0.04183831233744684)"><svg viewBox="0 0 395.52 155.0836766246749" height="155.0836766246749" width="395.52"><g><svg viewBox="0 0 395.52 155.0836766246749" height="155.0836766246749" width="395.52"><g><svg viewBox="0 0 624.8704794549246 245.01216466447482" height="155.0836766246749" width="395.52"><g><rect width="9.782062660987364" height="212.7457290863746" x="193.96092291700705" y="16.133217789050107" fill="#d3efff" opacity="1" stroke-width="0" stroke="transparent" fill-opacity="1" class="rect-qz-0" data-fill-palette-color="primary" rx="1%" id="qz-0" data-palette-color="#d3efff"></rect></g><g transform="matrix(1,0,0,1,229.3504794549247,33.862028546247984)"><svg viewBox="0 0 395.52 177.28810757197886" height="177.28810757197886" width="395.52"><g id="textblocktransform"><svg viewBox="0 0 395.52 177.28810757197886" height="177.28810757197886" width="395.52" id="textblock"><g><svg viewBox="0 0 395.52 108.47139851967277" height="108.47139851967277" width="395.52"><g transform="matrix(1,0,0,1,0,0)"><svg width="395.52" viewBox="2.1 -34.6 128.34 35.2" height="108.47139851967277" data-palette-color="#d3efff"><path d="M2.2 0.6L2.4-1.45Q3.9-1.85 4.55-2.63 5.2-3.4 5.2-4.7L5.2-4.7 5.2-17.4Q5.2-20.1 3.35-20.1L3.35-20.1Q3-20.1 2.6-20.03 2.2-19.95 2.1-19.9L2.1-19.9 2.3-21.75Q4.4-22.05 6.63-22.55 8.85-23.05 9.5-23.2L9.5-23.2 9.75-22.6Q9.3-21.55 8.95-16.18 8.6-10.8 8.6-4.9L8.6-4.9Q8.6-3.45 9-2.78 9.4-2.1 10.35-2.1L10.35-2.1Q10.9-2.1 11.4-2.15 11.9-2.2 12.1-2.2L12.1-2.2 12.2-2 11.8 0.15Q11.35 0.1 10.1 0.05 8.85 0 7.35 0L7.35 0Q6.05 0 4.38 0.25 2.7 0.5 2.2 0.6L2.2 0.6ZM6.6-29.1Q5.45-29.1 4.8-29.85 4.15-30.6 4.15-31.65L4.15-31.65Q4.15-32.85 5-33.73 5.85-34.6 7.1-34.6L7.1-34.6Q8.25-34.6 8.9-33.85 9.55-33.1 9.55-32.05L9.55-32.05Q9.55-30.85 8.7-29.98 7.85-29.1 6.6-29.1L6.6-29.1ZM17.5 0.5L17.8-1.8Q19.75-2.1 20.47-2.98 21.2-3.85 21.2-6L21.2-6 21.25-27Q21.25-28.6 20.87-29.15 20.5-29.7 19.4-29.7L19.4-29.7Q18.9-29.7 18.4-29.65 17.9-29.6 17.7-29.6L17.7-29.6 17.6-29.8 17.95-32Q18.55-31.95 20.2-31.9 21.85-31.85 23.55-31.85L23.55-31.85Q24.9-31.85 26.62-32.02 28.35-32.2 28.9-32.3L28.9-32.3 28.7-30.05Q27.05-29.85 26.42-29.4 25.8-28.95 25.67-28.35 25.55-27.75 25.4-25.4L25.4-25.4Q25.1-21.15 24.95-15.7 24.8-10.25 24.8-6.1L24.8-6.1Q24.8-4.3 25.1-3.53 25.4-2.75 26.22-2.5 27.05-2.25 29.05-2.25L29.05-2.25Q32.1-2.25 33.52-2.75 34.95-3.25 35.67-4.7 36.4-6.15 37-9.35L37-9.35 39.2-9.6 39.35-9.35Q39.2-8.55 38.72-5.75 38.25-2.95 37.9 0.15L37.9 0.15 37.65 0.45Q36.2 0.35 31.67 0.18 27.15 0 24.2 0L24.2 0Q21.85 0 19.92 0.2 18 0.4 17.5 0.5L17.5 0.5ZM51.75 0.6Q48.65 0.6 46.25-0.78 43.85-2.15 42.55-4.67 41.25-7.2 41.25-10.45L41.25-10.45Q41.25-13.8 42.77-16.75 44.3-19.7 46.85-21.45 49.4-23.2 52.3-23.2L52.3-23.2Q55.95-23.2 57.85-21.35 59.75-19.5 59.75-15.95L59.75-15.95Q59.75-14.5 59.45-13.5L59.45-13.5 58.8-12.9 45-12.9Q44.95-8.05 46.92-5.43 48.9-2.8 52.45-2.8L52.45-2.8Q55.25-2.8 58.55-4.35L58.55-4.35 58.85-4.25 59.4-2.8Q57.6-1.5 55.42-0.45 53.25 0.6 51.75 0.6L51.75 0.6ZM45.2-14.75L54.25-15.2Q55-15.3 55.25-15.55 55.5-15.8 55.5-16.55L55.5-16.55Q55.5-18.55 54.42-19.6 53.35-20.65 51.35-20.65L51.35-20.65Q49-20.65 47.32-19.05 45.65-17.45 45.2-14.75L45.2-14.75ZM80.44 0.6Q76.39 0.6 75.99-3.45L75.99-3.45 75.79-3.5Q73.99-1.7 72.52-0.65 71.04 0.4 70.29 0.4L70.29 0.4Q67.49 0.4 65.69-1.35 63.89-3.1 63.89-5.8L63.89-5.8Q63.89-7.25 64.62-8.35 65.34-9.45 66.54-9.8L66.54-9.8 76.04-12.4 76.09-14.6Q76.09-17.1 74.94-18.5 73.79-19.9 71.69-19.9L71.69-19.9Q70.29-19.9 68.74-19.25 67.19-18.6 65.69-17.4L65.69-17.4 65.44-17.55 64.84-19.7Q67.19-21.05 69.57-22.13 71.94-23.2 72.99-23.2L72.99-23.2Q76.24-23.2 78.09-21.5 79.94-19.8 79.94-16.75L79.94-16.75Q79.94-15.65 79.59-12.25L79.59-12.25Q79.04-6.75 79.04-5.25L79.04-5.25Q79.04-4.15 79.59-3.55 80.14-2.95 81.09-2.95L81.09-2.95Q81.89-2.95 82.74-3.33 83.59-3.7 84.09-4.2L84.09-4.2 84.79-3.4Q84.04-2.15 82.87-0.98 81.69 0.2 80.44 0.6L80.44 0.6ZM71.14-3Q72.09-3 73.37-3.68 74.64-4.35 75.69-5.4L75.69-5.4 75.94-10.5 69.14-8.45Q67.69-8 67.69-6.35L67.69-6.35Q67.69-4.9 68.67-3.95 69.64-3 71.14-3L71.14-3ZM88.09-1.8Q89.59-1.95 90.09-2.78 90.59-3.6 90.59-5.95L90.59-5.95 90.59-16.95Q90.59-18.6 90.14-19.3 89.69-20 88.69-20L88.69-20Q88.29-20 88.02-19.95 87.74-19.9 87.64-19.85L87.64-19.85 87.39-20.2 87.54-21.75Q89.44-22.1 91.57-22.6 93.69-23.1 94.29-23.25L94.29-23.25 94.64-22.95Q94.54-22.5 94.34-20.88 94.14-19.25 94.19-17.8L94.19-17.8 94.39-17.65Q95.89-20 97.92-21.5 99.94-23 101.44-23L101.44-23Q102.14-23 102.52-22.93 102.89-22.85 102.99-22.8L102.99-22.8 103.14-22.6Q103.04-21.9 102.72-19.63 102.39-17.35 102.34-15.45L102.34-15.45 100.39-15.3Q100.39-17.35 100.12-18.03 99.84-18.7 99.04-18.7L99.04-18.7Q97.94-18.7 96.69-17.78 95.44-16.85 94.39-15.3L94.39-15.3Q94.34-13.85 94.19-10.5 94.04-7.15 93.99-5.1L93.99-5.1Q93.99-3.4 94.49-2.8 94.99-2.2 96.39-2.2L96.39-2.2Q97.04-2.2 97.69-2.25 98.34-2.3 98.59-2.3L98.59-2.3 98.64-2.1 98.19 0.1Q97.69 0.1 96.19 0.05 94.69 0 93.09 0L93.09 0Q91.24 0 89.74 0.08 88.24 0.15 87.84 0.2L87.84 0.2 88.09-1.8ZM120.64-1.45Q122.14-1.85 122.79-2.63 123.44-3.4 123.44-4.7L123.44-4.7 123.64-14.6Q123.64-17.1 122.56-18.45 121.49-19.8 119.49-19.8L119.49-19.8Q117.89-19.8 116.24-18.98 114.59-18.15 113.34-17.2L113.34-17.2Q112.89-6.85 112.89-4.9L112.89-4.9Q112.89-3.35 113.29-2.73 113.69-2.1 114.69-2.1L114.69-2.1Q115.24-2.1 115.74-2.15 116.24-2.2 116.44-2.2L116.44-2.2 116.54-2 116.09 0.15Q115.64 0.1 114.34 0.05 113.04 0 111.54 0L111.54 0Q110.24 0 108.66 0.13 107.09 0.25 106.59 0.3L106.59 0.3 106.84-1.75Q108.29-2 108.89-2.65 109.49-3.3 109.49-4.7L109.49-4.7 109.49-16.9Q109.49-18.6 108.94-19.28 108.39-19.95 107.04-19.95L107.04-19.95 106.49-19.95 106.34-20.15 106.49-21.8Q108.64-22.15 110.76-22.63 112.89-23.1 113.49-23.25L113.49-23.25 113.79-22.85Q113.69-22.55 113.49-21.58 113.29-20.6 113.24-19.55L113.24-19.55 113.34-19.4Q119.04-23.2 120.69-23.2L120.69-23.2Q123.84-23.2 125.69-21.45 127.54-19.7 127.54-16.75L127.54-16.75Q127.54-16.25 127.24-12.15L127.24-12.15Q126.84-6.95 126.84-4.9L126.84-4.9Q126.84-3.45 127.24-2.78 127.64-2.1 128.59-2.1L128.59-2.1Q129.14-2.1 129.64-2.15 130.14-2.2 130.34-2.2L130.34-2.2 130.44-2 130.04 0.15Q129.59 0.1 128.34 0.05 127.09 0 125.59 0L125.59 0Q124.29 0 122.61 0.25 120.94 0.5 120.44 0.6L120.44 0.6 120.64-1.45Z" opacity="1" transform="matrix(1,0,0,1,0,0)" fill="#d3efff" class="wordmark-text-0" data-fill-palette-color="primary" id="text-0"></path></svg></g></svg></g><g transform="matrix(1,0,0,1,0,134.07889239660304)"><svg viewBox="0 0 338.1696 43.2092151753758" height="43.2092151753758" width="338.1696"><g transform="matrix(1,0,0,1,0,0)"><svg width="338.1696" viewBox="3.15 -34.3 279.37 35.699999999999996" height="43.2092151753758" data-palette-color="#67eaf7"><path d="M3.15 0.4L3.5-1.9Q5.7-2.3 6.4-3.08 7.1-3.85 7.1-6L7.1-6 7.15-27Q7.15-28.6 6.78-29.15 6.4-29.7 5.3-29.7L5.3-29.7Q4.8-29.7 4.3-29.65 3.8-29.6 3.6-29.6L3.6-29.6 3.5-29.8 3.85-32Q4.45-31.95 6.1-31.9 7.75-31.85 9.4-31.85L9.4-31.85Q10.95-31.85 12.93-31.93 14.9-32 15.7-32.05L15.7-32.05Q20.9-32.05 23.65-29.75 26.4-27.45 26.4-23.15L26.4-23.15Q26.4-20.35 24.78-17.82 23.15-15.3 20.5-13.75 17.85-12.2 14.95-12.2L14.95-12.2 10.75-12.2 10.65-7.3Q10.65-4.9 10.8-3.88 10.95-2.85 11.38-2.53 11.8-2.2 12.85-2.2L12.85-2.2Q13.7-2.2 14.48-2.25 15.25-2.3 15.55-2.35L15.55-2.35 15.65-2.15 15.2 0.15Q14.7 0.1 13.38 0.05 12.05 0 10.6 0L10.6 0Q8.6 0 5.93 0.15 3.25 0.3 3.15 0.4L3.15 0.4ZM16.15-14.4Q19.15-14.9 20.68-16.85 22.2-18.8 22.2-22.2L22.2-22.2Q22.2-26.05 19.93-27.83 17.65-29.6 12.8-29.6L12.8-29.6Q11.9-29.6 11.7-29.5 11.5-29.4 11.45-28.9L11.45-28.9Q11-22.55 10.85-15.15L10.85-15.15 16.15-14.4ZM30.6 0.4L30.9-1.7Q32.5-1.95 33.07-2.63 33.65-3.3 33.65-5L33.65-5 33.7-20.85Q33.7-22.1 33.4-22.53 33.1-22.95 32.2-22.95L32.2-22.95 30.85-22.9 30.7-23.1 31-25Q31.25-25 32.5-24.95 33.75-24.9 35.85-24.9L35.85-24.9Q36.95-24.9 38.57-25.05 40.2-25.2 40.7-25.25L40.7-25.25 40.5-23.15Q39.15-23 38.6-22.68 38.05-22.35 37.95-21.85 37.85-21.35 37.7-19.8L37.7-19.8Q37.2-13.1 37.2-4.95L37.2-4.95Q37.2-3.7 37.42-3.13 37.65-2.55 38.32-2.35 39-2.15 40.45-2.15L40.45-2.15Q42.85-2.15 43.97-2.55 45.1-2.95 45.67-4.13 46.25-5.3 46.7-7.85L46.7-7.85 48.9-8.1 49.05-7.8Q48.95-7.15 48.57-4.83 48.2-2.5 47.9 0.05L47.9 0.05 47.65 0.35Q46.5 0.3 42.77 0.15 39.05 0 36.5 0L36.5 0Q34.5 0 32.77 0.18 31.05 0.35 30.6 0.4L30.6 0.4ZM65.09 0.35L64.95 0.1 65.09-1.7Q67.2-1.85 67.92-2.15 68.65-2.45 68.65-3.15L68.65-3.15Q68.65-3.95 68.3-4.85L68.3-4.85 67.09-8.7Q66.09-8.75 62.95-8.75L62.95-8.75Q61.5-8.75 58.65-8.45L58.65-8.45 57.25-4.75Q56.9-3.6 56.9-3.35L56.9-3.35Q56.9-2.55 57.45-2.2 58-1.85 59.25-1.85L59.25-1.85 61.4-1.85 61.55-1.65 61.25 0.25Q60.75 0.2 58.97 0.1 57.2 0 55.5 0L55.5 0Q53.9 0 52.62 0.05 51.35 0.1 50.9 0.1L50.9 0.1 51.2-1.95Q52.3-2.1 52.95-2.73 53.6-3.35 54.25-4.85L54.25-4.85 62.1-24.7 65.65-25.35 66-25.3Q66-25.1 68.27-17.4 70.55-9.7 72.34-4.65L72.34-4.65Q72.84-3.2 73.62-2.63 74.4-2.05 76.09-1.9L76.09-1.9 76.2-1.7 75.95 0.1Q75.45 0.1 74.09 0.05 72.75 0 71.4 0L71.4 0Q69.34 0 67.5 0.15 65.65 0.3 65.09 0.35L65.09 0.35ZM59.45-10.8L62.85-10.8Q64.59-10.8 66.5-11L66.5-11 63.45-20.7 63.1-20.7 59.45-10.8ZM80.74 0.45L81.04-1.6Q82.54-1.85 83.24-2.25 83.94-2.65 84.14-3.4 84.34-4.15 84.34-5.65L84.34-5.65 84.34-7.2Q84.34-8.35 84.09-9.25 83.84-10.15 83.14-11.5L83.14-11.5 79.39-18.7Q78.44-20.5 77.94-21.23 77.44-21.95 76.64-22.4 75.84-22.85 74.34-23L74.34-23 74.24-23.2 74.54-25Q74.99-25 76.37-24.95 77.74-24.9 79.24-24.9L79.24-24.9Q80.64-24.9 82.64-25.03 84.64-25.15 85.24-25.2L85.24-25.2 85.39-24.9 85.24-23.25Q83.54-23.15 82.92-22.88 82.29-22.6 82.29-21.9L82.29-21.9Q82.29-21.25 84.07-17.6 85.84-13.95 86.59-12.5L86.59-12.5 86.84-12.5 91.14-20.2Q91.79-21.35 91.79-22.1L91.79-22.1Q91.79-23.05 89.34-23.2L89.34-23.2 89.24-23.35 89.49-25.15Q89.79-25.15 91.49-25.03 93.19-24.9 94.29-24.9L94.29-24.9Q95.59-24.9 96.69-24.95 97.79-25 98.19-25.05L98.19-25.05 98.34-24.75 98.09-23.05Q96.74-22.75 95.99-22.25 95.24-21.75 94.67-20.95 94.09-20.15 92.79-18L92.79-18 88.74-11.1Q88.19-10.05 88.04-8.8 87.89-7.55 87.89-4.3L87.89-4.3Q87.89-3 88.29-2.5 88.69-2 89.74-2L89.74-2Q90.39-2 90.97-2.05 91.54-2.1 91.74-2.1L91.74-2.1 91.84-1.95 91.44 0.15Q90.84 0.1 89.19 0.05 87.54 0 85.84 0L85.84 0Q84.54 0 82.89 0.18 81.24 0.35 80.74 0.45L80.74 0.45ZM145.94-18.6L147.09-17.5 147.09-17.2 142.54-12.2 141.64-11.85 137.34-12.45Q136.29-8.75 133.79-5.75 131.29-2.75 127.91-1.05 124.54 0.65 120.99 0.65L120.99 0.65Q115.64 0.65 112.54-2.65 109.44-5.95 109.44-11.55L109.44-11.55Q109.44-15.2 111.01-18.38 112.59-21.55 115.16-23.43 117.74-25.3 120.49-25.3L120.49-25.3Q122.59-25.3 123.74-24.28 124.89-23.25 124.89-21.45L124.89-21.45Q124.89-20.8 124.71-20.23 124.54-19.65 124.34-19.33 124.14-19 124.09-18.9L124.09-18.9 124.29-18.8Q129.79-22.55 132.76-26.28 135.74-30 136.29-34L136.29-34 136.64-34.3 137.64-34.3Q137.84-33.75 138.34-32.13 138.84-30.5 138.84-29.6L138.84-29.6Q138.84-29.05 137.99-27.9 137.14-26.75 136.29-25.85L136.29-25.85Q133.14-22.25 128.16-18.75 123.19-15.25 112.89-9.5L112.89-9.5Q113.74-6.25 116.26-4.4 118.79-2.55 122.54-2.55L122.54-2.55Q127.09-2.55 130.19-5.28 133.29-8 134.29-12.9L134.29-12.9 131.29-13.3Q130.84-13.3 129.96-12.6 129.09-11.9 128.34-11.15 127.59-10.4 127.39-10.15L127.39-10.15 127.09-10.15 125.79-11.25 125.79-11.5 130.49-16.5 131.29-16.8Q132.34-16.8 136.44-16.1L136.44-16.1Q140.64-15.4 141.79-15.4L141.79-15.4Q142.14-15.4 142.96-16.1 143.79-16.8 144.56-17.57 145.34-18.35 145.54-18.6L145.54-18.6 145.94-18.6ZM112.69-11.6Q116.14-13.65 117.86-14.98 119.59-16.3 120.26-17.38 120.94-18.45 120.94-19.8L120.94-19.8Q120.94-20.85 120.36-21.43 119.79-22 118.79-22L118.79-22Q117.19-22 115.79-20.85 114.39-19.7 113.54-17.65 112.69-15.6 112.69-13.1L112.69-13.1 112.69-11.6ZM155.28 0.5L155.58-1.8Q157.53-2.1 158.26-2.98 158.98-3.85 158.98-6L158.98-6 159.03-27Q159.03-28.6 158.66-29.15 158.28-29.7 157.18-29.7L157.18-29.7Q156.68-29.7 156.18-29.65 155.68-29.6 155.48-29.6L155.48-29.6 155.38-29.8 155.73-32Q156.33-31.95 157.98-31.9 159.63-31.85 161.33-31.85L161.33-31.85Q162.68-31.85 164.41-32.02 166.13-32.2 166.68-32.3L166.68-32.3 166.48-30.05Q164.83-29.85 164.21-29.4 163.58-28.95 163.46-28.35 163.33-27.75 163.18-25.4L163.18-25.4Q162.88-21.15 162.73-15.7 162.58-10.25 162.58-6.1L162.58-6.1Q162.58-4.3 162.88-3.53 163.18-2.75 164.01-2.5 164.83-2.25 166.83-2.25L166.83-2.25Q169.88-2.25 171.31-2.75 172.73-3.25 173.46-4.7 174.18-6.15 174.78-9.35L174.78-9.35 176.98-9.6 177.13-9.35Q176.98-8.55 176.51-5.75 176.03-2.95 175.68 0.15L175.68 0.15 175.43 0.45Q173.98 0.35 169.46 0.18 164.93 0 161.98 0L161.98 0Q159.63 0 157.71 0.2 155.78 0.4 155.28 0.5L155.28 0.5ZM178.93 0.4L179.18-1.7Q181.03-1.9 181.68-2.6 182.33-3.3 182.33-5L182.33-5 182.38-20.85Q182.38-22.1 182.08-22.53 181.78-22.95 180.88-22.95L180.88-22.95 179.53-22.9 179.43-23.1 179.73-25Q180.33-25 182.08-24.95 183.83-24.9 185.88-24.9L185.88-24.9Q194.23-24.9 198.23-25.35L198.23-25.35 198.38-25.1Q198.28-24.55 197.93-22.6 197.58-20.65 197.43-18.4L197.43-18.4 195.03-18.2Q195.03-18.4 195.08-18.88 195.13-19.35 195.13-19.85L195.13-19.85Q195.13-21.15 194.76-21.68 194.38-22.2 193.21-22.38 192.03-22.55 189.13-22.55L189.13-22.55Q187.78-22.55 187.28-22.48 186.78-22.4 186.63-22.13 186.48-21.85 186.43-21.1L186.43-21.1 186.13-14 190.23-13.95Q191.13-13.95 192.88-14.13 194.63-14.3 195.18-14.35L195.18-14.35 195.38-14.1 194.78-11.5Q194.23-11.5 192.61-11.55 190.98-11.6 189.18-11.6L189.18-11.6Q187.78-11.6 186.03-11.35L186.03-11.35Q185.88-7.55 185.88-4.5L185.88-4.5Q185.88-3.35 186.06-2.9 186.23-2.45 186.86-2.3 187.48-2.15 188.93-2.15L188.93-2.15Q192.18-2.15 193.58-2.45 194.98-2.75 195.56-3.68 196.13-4.6 196.48-6.85L196.48-6.85 198.68-7.05 198.88-6.8Q198.73-6.25 198.36-4.23 197.98-2.2 197.78 0L197.78 0 197.48 0.25Q196.13 0.2 191.88 0.1 187.63 0 184.98 0L184.98 0Q182.93 0 181.18 0.18 179.43 0.35 178.93 0.4L178.93 0.4ZM215.83 0.35L215.68 0.1 215.83-1.7Q217.93-1.85 218.65-2.15 219.38-2.45 219.38-3.15L219.38-3.15Q219.38-3.95 219.03-4.85L219.03-4.85 217.83-8.7Q216.83-8.75 213.68-8.75L213.68-8.75Q212.23-8.75 209.38-8.45L209.38-8.45 207.98-4.75Q207.63-3.6 207.63-3.35L207.63-3.35Q207.63-2.55 208.18-2.2 208.73-1.85 209.98-1.85L209.98-1.85 212.13-1.85 212.28-1.65 211.98 0.25Q211.48 0.2 209.7 0.1 207.93 0 206.23 0L206.23 0Q204.63 0 203.35 0.05 202.08 0.1 201.63 0.1L201.63 0.1 201.93-1.95Q203.03-2.1 203.68-2.73 204.33-3.35 204.98-4.85L204.98-4.85 212.83-24.7 216.38-25.35 216.73-25.3Q216.73-25.1 219-17.4 221.28-9.7 223.08-4.65L223.08-4.65Q223.58-3.2 224.35-2.63 225.13-2.05 226.83-1.9L226.83-1.9 226.93-1.7 226.68 0.1Q226.18 0.1 224.83 0.05 223.48 0 222.13 0L222.13 0Q220.08 0 218.23 0.15 216.38 0.3 215.83 0.35L215.83 0.35ZM210.18-10.8L213.58-10.8Q215.33-10.8 217.23-11L217.23-11 214.18-20.7 213.83-20.7 210.18-10.8ZM248.68 0.6Q247.58 0.6 246.43-0.38 245.28-1.35 244.33-3.05L244.33-3.05 240.13-10.4 236.88-10.4 236.78-5.05Q236.78-3.6 236.98-2.98 237.18-2.35 237.75-2.15 238.33-1.95 239.73-1.9L239.73-1.9 239.83-1.75 239.43 0.15Q238.83 0.1 237.25 0.08 235.68 0.05 234.08 0.05L234.08 0.05Q232.53 0.05 231.38 0.1 230.23 0.15 229.83 0.2L229.83 0.2 230.18-1.85Q232.03-2.1 232.63-2.7 233.23-3.3 233.23-4.95L233.23-4.95 233.28-20.9Q233.28-22.1 232.98-22.53 232.68-22.95 231.83-22.95L231.83-22.95 230.43-22.9 230.28-23.1 230.58-25Q231.08-25 232.48-24.95 233.88-24.9 235.28-24.9L235.28-24.9Q236.73-24.9 238.38-24.98 240.03-25.05 240.63-25.05L240.63-25.05Q244.68-25.05 246.98-23.38 249.28-21.7 249.28-18.75L249.28-18.75Q249.28-16.45 247.73-14.5 246.18-12.55 243.38-11.3L243.38-11.3 247.63-4.9Q248.83-3.1 249.93-2.35 251.03-1.6 252.58-1.6L252.58-1.6 252.78-1.35 252.53 0.2 248.68 0.6ZM241.03-12.6Q241.98-13 242.7-13.38 243.43-13.75 244.33-14.95 245.23-16.15 245.23-18.05L245.23-18.05Q245.23-22.9 238.08-22.9L238.08-22.9Q237.68-22.9 237.53-22.73 237.38-22.55 237.38-22L237.38-22Q236.98-15.9 236.98-13L236.98-13 241.03-12.6ZM276.67-6.8L276.62-21.25Q276.62-22.9 275.27-22.9L275.27-22.9 273.77-22.9 273.67-23.1 274.02-25.05Q274.47-25 275.72-24.95 276.97-24.9 278.27-24.9L278.27-24.9Q279.37-24.9 280.75-25.03 282.12-25.15 282.52-25.2L282.52-25.2 282.32-23.15Q280.87-22.95 280.25-22.38 279.62-21.8 279.57-20.65L279.57-20.65 278.97 0.85 277.02 1.4Q272.27-5.55 267.42-12.2 262.57-18.85 262.57-18.75L262.57-18.75 262.32-18.75 262.17-3.6Q262.17-2.65 262.47-2.3 262.77-1.95 263.47-1.95L263.47-1.95 265.47-2 265.62-1.85 265.22 0.15Q264.77 0.1 263.45 0.05 262.12 0 260.67 0L260.67 0Q259.52 0 258.22 0.13 256.92 0.25 256.52 0.3L256.52 0.3 256.77-1.75Q258.02-1.9 258.62-2.48 259.22-3.05 259.27-4.2L259.27-4.2 259.82-20.7Q259.82-21.95 259.1-22.43 258.37-22.9 256.32-23.15L256.32-23.15 256.12-23.4 256.47-25.1Q256.87-25.05 258-24.98 259.12-24.9 260.27-24.9L260.27-24.9Q261.37-24.9 262.22-24.95 263.07-25 263.32-25.05L263.32-25.05Q267.37-19.1 271.9-12.9 276.42-6.7 276.42-6.8L276.42-6.8 276.67-6.8Z" opacity="1" transform="matrix(1,0,0,1,0,0)" fill="#67eaf7" class="slogan-text-1" data-fill-palette-color="secondary" id="text-1"></path></svg></g></svg></g></svg></g></svg></g><g><svg viewBox="0 0 168.35342904007678 245.01216466447482" height="245.01216466447482" width="168.35342904007678"><g><svg xmlns:x="http://ns.adobe.com/Extensibility/1.0/" xmlns:i="http://ns.adobe.com/AdobeIllustrator/10.0/" xmlns:graph="http://ns.adobe.com/Graphs/1.0/" xmlns="http://www.w3.org/2000/svg" xmlns:xlink="http://www.w3.org/1999/xlink" version="1.1" x="0" y="0" viewBox="15.899999999999999 0.2999999999999998 68.30000000000001 99.4" enable-background="new 0 0 100 100" xml:space="preserve" height="245.01216466447482" width="168.35342904007678" class="icon-icon-0" data-fill-palette-color="accent" id="icon-0"><path d="M27.2 99.7h45.7c6.2 0 11.3-5 11.3-11.3V21c0-6.2-5-11.3-11.3-11.3H27.2c-6.2 0-11.3 5-11.3 11.3v67.4C15.9 94.6 20.9 99.7 27.2 99.7zM20.9 21c0-3.4 2.8-6.3 6.3-6.3h45.7c3.4 0 6.3 2.8 6.3 6.3v67.4c0 3.4-2.8 6.3-6.3 6.3H27.2c-3.4 0-6.3-2.8-6.3-6.3V21zM28.2 63.5h43.6c1.4 0 2.5-1.1 2.5-2.5V24.1c0-1.4-1.1-2.5-2.5-2.5H28.2c-1.4 0-2.5 1.1-2.5 2.5V61C25.7 62.3 26.8 63.5 28.2 63.5zM30.7 26.6h38.6v31.9H30.7V26.6zM57.8 77.5c1.2 1.2 1.2 3.1 0 4.3-1.2 1.2-3.1 1.2-4.3 0s-1.2-3.1 0-4.3C54.7 76.3 56.6 76.3 57.8 77.5zM70.2 77.5c1.2 1.2 1.2 3.1 0 4.3-1.2 1.2-3.1 1.2-4.3 0-1.2-1.2-1.2-3.1 0-4.3C67.1 76.3 69 76.3 70.2 77.5zM45.8 79.6c0 1.4-1.1 2.5-2.5 2.5h-3.8v3.8c0 1.4-1.1 2.5-2.5 2.5s-2.5-1.1-2.5-2.5v-3.8h-3.8c-1.4 0-2.5-1.1-2.5-2.5s1.1-2.5 2.5-2.5h3.8v-3.8c0-1.4 1.1-2.5 2.5-2.5s2.5 1.1 2.5 2.5v3.8h3.8C44.7 77.1 45.8 78.2 45.8 79.6zM64 83.7c1.2 1.2 1.2 3.1 0 4.3s-3.1 1.2-4.3 0c-1.2-1.2-1.2-3.1 0-4.3C60.9 82.5 62.8 82.5 64 83.7zM64 71.3c1.2 1.2 1.2 3.1 0 4.3-1.2 1.2-3.1 1.2-4.3 0-1.2-1.2-1.2-3.1 0-4.3C60.9 70.1 62.8 70.1 64 71.3zM28.3 2.8c0-1.4 1.1-2.5 2.5-2.5h38.4c1.4 0 2.5 1.1 2.5 2.5s-1.1 2.5-2.5 2.5H30.8C29.4 5.3 28.3 4.2 28.3 2.8z" fill="#67eaf7" data-fill-palette-color="accent"></path></svg><g></g></g></svg></g></svg></g></svg></g><defs></defs></svg><rect width="395.52" height="155.0836766246749" fill="none" stroke="none" visibility="hidden"></rect></g></svg></g></svg>